<svg width="315" height="316" viewBox="0 0 315 316" fill="none" xmlns="http://www.w3.org/2000/svg">
<g id="Black-TP">
<g id="Side">
<path id="Vector" d="M44.8785 201.315V213.764C44.8795 216.407 45.5183 219.011 46.7404 221.354C47.9626 223.699 49.7319 225.711 51.8978 227.223L101.173 177.883L87.5124 164.204C87.1468 163.839 86.713 163.549 86.2355 163.35C85.7581 163.152 85.2462 163.05 84.7294 163.05C84.2125 163.05 83.7008 163.152 83.2234 163.35C82.7459 163.549 82.312 163.839 81.9465 164.204L44.8785 201.315Z" fill="#333333"/>
<path id="Vector_2" d="M229.315 191.393L265.091 227.222C267.257 225.709 269.026 223.696 270.248 221.353C271.47 219.01 272.108 216.406 272.109 213.762V205.295L246.55 179.704C245.812 178.965 244.811 178.55 243.767 178.55C242.722 178.55 241.721 178.965 240.983 179.704L229.315 191.393Z" fill="#333333"/>
</g>
<path id="Border" d="M158.441 13.6368C161.656 13.6347 164.817 14.4807 167.602 16.0897L276.239 78.8344C279.025 80.4436 281.338 82.7585 282.947 85.5466C284.556 88.3348 285.404 91.498 285.406 94.7182L285.456 220.294C285.457 223.514 284.611 226.677 283.004 229.467C281.398 232.255 279.087 234.573 276.302 236.184L167.714 299.015C164.929 300.626 161.771 301.475 158.554 301.476C155.338 301.478 152.178 300.631 149.392 299.022L40.7551 236.277C37.9694 234.669 35.6556 232.353 34.0466 229.566C32.4376 226.777 31.5898 223.615 31.5886 220.395L31.5386 94.8192C31.5373 91.5989 32.3825 88.4351 33.9894 85.6457C35.5963 82.8562 37.9081 80.5395 40.6926 78.9281L149.28 16.097C152.065 14.4859 155.224 13.6374 158.441 13.6368ZM158.435 0.0558784C152.839 0.0602926 147.342 1.53753 142.495 4.33954L33.9061 67.1706C29.0662 69.9814 25.0477 74.0145 22.2521 78.8672C19.4565 83.7201 17.9816 89.2224 17.975 94.8246L18.0249 220.4C18.0363 226.003 19.5158 231.504 22.3155 236.354C25.1152 241.205 29.1371 245.234 33.9794 248.042L142.617 310.786C147.465 313.586 152.964 315.058 158.56 315.056C164.157 315.054 169.655 313.578 174.501 310.774L283.088 247.943C287.929 245.133 291.949 241.099 294.745 236.247C297.542 231.394 299.017 225.891 299.025 220.289L298.975 94.7128C298.964 89.1107 297.484 83.6095 294.685 78.759C291.885 73.9085 287.863 69.8784 283.022 67.0716L174.385 4.32686C169.536 1.52889 164.038 0.0560379 158.441 0.0558762L158.435 0.0558784Z" fill="#333333"/>
<path id="Lamp" fill-rule="evenodd" clip-rule="evenodd" d="M84.7251 148.053C86.377 148.049 88.0134 148.372 89.5394 149.006C91.0655 149.639 92.4508 150.569 93.6153 151.742L110.443 168.59L144.992 133.997C148.576 130.414 153.433 128.402 158.497 128.402C163.56 128.402 168.417 130.414 172.001 133.997L220.04 182.098L234.888 167.231C237.248 164.874 240.444 163.55 243.778 163.55C247.111 163.55 250.308 164.874 252.667 167.231L272.116 186.721V101.355C272.116 98.4727 271.358 95.641 269.917 93.1448C268.478 90.6485 266.407 88.5757 263.914 87.1344L166.697 30.9331C164.204 29.4916 161.374 28.7327 158.495 28.7327C155.616 28.7327 152.787 29.4916 150.294 30.9331L53.0743 87.1344C50.5812 88.5757 48.5107 90.6485 47.071 93.1448C45.6314 95.641 44.8733 98.4727 44.8727 101.355V182.736L75.8294 151.74C76.9947 150.566 78.3812 149.636 79.9081 149.005C81.4352 148.372 83.0725 148.048 84.7251 148.053ZM165.106 110.294V112.905C165.106 114.289 164.557 115.617 163.579 116.596C162.601 117.576 161.275 118.126 159.892 118.126H154.677C153.295 118.126 151.968 117.576 150.99 116.596C150.012 115.617 149.463 114.289 149.463 112.905V110.294H165.106ZM167.713 105.073V105.791C167.713 106.293 167.514 106.774 167.16 107.129C166.805 107.484 166.324 107.684 165.823 107.684H148.746C148.245 107.684 147.764 107.484 147.41 107.129C147.055 106.774 146.856 106.293 146.856 105.791V105.073H167.713ZM146.856 102.463V99.8522H167.713V102.463H146.856ZM159.24 83.145V97.2417H155.329V83.145L157.285 81.8397L159.24 83.145ZM164.007 48.6641C166.993 49.6142 169.741 51.1927 172.067 53.2939C174.39 55.3759 176.247 57.9249 177.518 60.7746C178.79 63.6242 179.446 66.7104 179.446 69.8314C179.444 75.5615 177.209 81.0645 173.214 85.1681C170.026 88.4236 168.079 92.6964 167.713 97.2417H161.886V84.0195L167.101 81.409C167.266 81.34 167.416 81.2376 167.54 81.1081C167.664 80.9786 167.76 80.8249 167.822 80.6566C167.884 80.4882 167.911 80.3088 167.901 80.1296C167.891 79.9504 167.844 79.7753 167.763 79.6151C167.682 79.4549 167.569 79.3132 167.431 79.1987C167.293 79.0842 167.133 78.9995 166.96 78.9498C166.788 78.9001 166.607 78.8865 166.43 78.9099C166.252 78.9333 166.081 78.9931 165.927 79.0857L161.391 81.3568L158.784 79.6469C158.355 79.3607 157.852 79.208 157.337 79.208C156.822 79.208 156.318 79.3607 155.89 79.6469L153.283 81.3568L148.746 79.0857C148.442 78.959 148.102 78.9521 147.793 79.0663C147.484 79.1806 147.23 79.4075 147.082 79.7017C146.933 79.9958 146.901 80.3352 146.992 80.6519C147.084 80.9686 147.291 81.2391 147.573 81.409L152.722 84.0195V97.2417H146.856C146.53 92.744 144.606 88.512 141.433 85.3117C138.543 82.3419 136.543 78.6207 135.657 74.5703C134.772 70.5199 135.038 66.3021 136.425 62.3954C137.812 58.4886 140.265 55.0491 143.505 52.4669C146.745 49.8847 150.642 48.263 154.756 47.7858C157.867 47.4146 161.021 47.7141 164.007 48.6641ZM155.836 75.9177C156.265 76.2046 156.769 76.3577 157.285 76.3577C157.976 76.3577 158.639 76.0827 159.128 75.5931C159.617 75.1035 159.892 74.4395 159.892 73.7472C159.892 73.2309 159.739 72.7262 159.452 72.2969C159.166 71.8676 158.759 71.533 158.282 71.3354C157.806 71.1378 157.282 71.0861 156.776 71.1868C156.27 71.2876 155.806 71.5362 155.441 71.9013C155.076 72.2664 154.828 72.7315 154.728 73.2379C154.627 73.7443 154.679 74.2692 154.876 74.7462C155.073 75.2232 155.407 75.6309 155.836 75.9177ZM163.055 69.7027C163.228 69.6192 163.381 69.4982 163.503 69.3485C163.719 69.0812 163.821 68.7394 163.787 68.3973C163.753 68.0551 163.585 67.7403 163.32 67.5211L163.046 67.2862C161.419 65.9591 159.384 65.2344 157.285 65.2344C155.185 65.2344 153.151 65.9591 151.523 67.2862L151.249 67.5211C151.097 67.6219 150.968 67.7534 150.87 67.9072C150.772 68.0611 150.707 68.2338 150.679 68.4143C150.652 68.5948 150.663 68.7789 150.711 68.955C150.759 69.131 150.844 69.2949 150.959 69.4362C151.075 69.5775 151.219 69.6929 151.381 69.7751C151.544 69.8573 151.722 69.9044 151.904 69.9133C152.087 69.9223 152.268 69.8929 152.438 69.8271C152.608 69.7613 152.763 69.6605 152.892 69.5312L153.165 69.3093C154.329 68.3595 155.784 67.8407 157.285 67.8407C158.786 67.8407 160.241 68.3595 161.404 69.3093L161.678 69.5312C161.905 69.729 162.198 69.8359 162.499 69.8314C162.692 69.8302 162.881 69.7862 163.055 69.7027ZM165.721 64.4527C165.909 64.3502 166.07 64.2026 166.188 64.0231C166.377 63.7353 166.444 63.3846 166.376 63.0472C166.308 62.7099 166.109 62.4132 165.823 62.2218C163.298 60.5243 160.326 59.6179 157.285 59.6179C154.243 59.6179 151.271 60.5243 148.746 62.2218C148.586 62.3077 148.446 62.426 148.335 62.5692C148.223 62.7124 148.142 62.8773 148.098 63.0534C148.054 63.2295 148.047 63.413 148.077 63.592C148.108 63.771 148.175 63.9417 148.276 64.093C148.376 64.2444 148.507 64.3732 148.659 64.4712C148.812 64.5691 148.983 64.6341 149.163 64.6619C149.342 64.6897 149.525 64.6798 149.7 64.6327C149.875 64.5856 150.039 64.5025 150.18 64.3885C152.284 62.9849 154.756 62.236 157.285 62.236C159.813 62.236 162.285 62.9849 164.389 64.3885C164.599 64.5358 164.85 64.6134 165.106 64.6104C165.321 64.6093 165.532 64.5551 165.721 64.4527ZM168.328 59.2317C168.517 59.1292 168.677 58.9816 168.795 58.8021L168.821 58.776C168.912 58.6304 168.974 58.4682 169.002 58.2988C169.03 58.1293 169.025 57.956 168.986 57.7886C168.947 57.6213 168.876 57.4633 168.776 57.3236C168.676 57.1839 168.55 57.0654 168.404 56.9747L167.648 56.5048C164.536 54.5717 160.947 53.5474 157.285 53.5474C153.622 53.5474 150.033 54.5717 146.921 56.5048L146.165 56.9747C145.871 57.1582 145.662 57.4511 145.584 57.7889C145.506 58.1266 145.565 58.4817 145.748 58.776C145.931 59.0702 146.224 59.2795 146.561 59.3579C146.728 59.3967 146.901 59.4021 147.07 59.3739C147.239 59.3458 147.401 59.2845 147.547 59.1937L148.303 58.7238C150.999 57.047 154.11 56.1585 157.285 56.1585C160.459 56.1585 163.57 57.047 166.266 58.7238L167.022 59.1937C167.23 59.3224 167.469 59.3902 167.713 59.3894C167.928 59.3883 168.139 59.3341 168.328 59.2317Z" fill="#333333"/>
<path id="Chip" fill-rule="evenodd" clip-rule="evenodd" d="M97.1546 219.699C97.2662 219.465 97.3672 219.222 97.4549 218.978H129.833V229.542H118.746C118.645 229.255 118.529 228.973 118.393 228.699C117.099 226.048 114.242 224.249 111.282 224.22H111.178C109.15 224.239 107.179 225.042 105.73 226.426C103.905 228.169 102.985 230.812 103.333 233.318C103.796 236.613 106.519 239.45 109.772 240.054C113.28 240.706 116.918 238.776 118.414 235.668C118.542 235.407 118.651 235.139 118.746 234.865H129.833V242.851C129.844 242.945 129.852 243.027 129.859 243.1C129.891 243.437 129.907 243.609 130.096 244.006C130.272 244.365 130.522 244.681 130.835 244.932C131.295 245.299 131.896 245.443 132.491 245.512H140.466V256.619C139.408 256.995 138.433 257.588 137.622 258.362C135.797 260.105 134.877 262.751 135.228 265.255C135.608 267.985 137.516 270.454 140.065 271.514C143.971 273.145 148.582 271.186 150.309 267.604C151.351 265.438 151.343 262.796 150.288 260.635C149.382 258.783 147.713 257.346 145.781 256.638V245.512H156.411V277.911C155.31 278.302 154.298 278.93 153.466 279.752C151.702 281.498 150.83 284.093 151.173 286.546C151.558 289.285 153.466 291.746 156.009 292.805C159.918 294.434 164.529 292.475 166.254 288.893C167.296 286.73 167.29 284.087 166.233 281.927C165.329 280.074 163.66 278.637 161.728 277.932V245.512H172.358V256.619C171.3 256.995 170.325 257.588 169.515 258.362C167.689 260.105 166.769 262.751 167.12 265.255C167.503 267.985 169.408 270.454 171.957 271.514C175.866 273.142 180.477 271.184 182.201 267.604C183.243 265.438 183.235 262.796 182.18 260.635C181.274 258.783 179.605 257.346 177.673 256.638V245.512H185.645C185.739 245.501 185.821 245.493 185.895 245.486C186.233 245.454 186.404 245.438 186.799 245.248C187.16 245.075 187.476 244.823 187.723 244.509C188.09 244.048 188.236 243.447 188.305 242.851V234.865H199.403C200.365 237.467 202.72 239.548 205.451 240.054C208.957 240.706 212.597 238.776 214.093 235.666C215.135 233.502 215.13 230.86 214.072 228.699C212.775 226.048 209.921 224.249 206.958 224.22H206.857C204.827 224.239 202.858 225.042 201.407 226.426C200.506 227.286 199.826 228.369 199.408 229.542H188.305V218.978H220.695C221.675 221.543 224.011 223.584 226.714 224.087C230.219 224.736 233.857 222.807 235.356 219.699C236.392 217.546 236.39 214.922 235.356 212.775C234.07 210.1 231.2 208.28 228.221 208.251H228.12C226.118 208.272 224.155 209.057 222.704 210.425C221.805 211.271 221.122 212.336 220.7 213.493H188.305V202.928H199.403C200.365 205.531 202.72 207.612 205.451 208.118C208.957 208.77 212.597 206.84 214.093 203.729C215.146 201.547 215.127 198.886 214.051 196.717C212.743 194.088 209.903 192.311 206.961 192.284H206.857C204.806 192.303 202.797 193.13 201.34 194.557C200.471 195.405 199.815 196.459 199.408 197.606H188.305V189.623C188.297 189.554 188.292 189.486 188.286 189.416C188.276 189.287 188.266 189.156 188.236 189.029C188.149 188.641 187.973 188.276 187.723 187.962C187.357 187.502 186.804 187.225 186.238 187.028L185.645 186.962H177.673V175.817C179.626 175.104 181.3 173.661 182.201 171.793C183.251 169.611 183.235 166.95 182.159 164.781C180.851 162.152 178.01 160.374 175.066 160.348H174.965C172.913 160.366 170.904 161.194 169.445 162.618C167.665 164.361 166.775 166.971 167.12 169.443C167.524 172.328 169.655 174.859 172.358 175.851V186.962H161.728V154.496C163.679 153.788 165.358 152.367 166.254 150.502C167.306 148.319 167.288 145.658 166.211 143.49C164.907 140.863 162.066 139.083 159.121 139.056H159.018C156.958 139.075 154.957 139.902 153.501 141.329C151.718 143.069 150.827 145.68 151.173 148.152C151.558 150.893 153.466 153.354 156.009 154.413C156.142 154.469 156.278 154.52 156.411 154.568V186.962H145.781V175.817C147.734 175.104 149.408 173.661 150.309 171.793C151.359 169.611 151.343 166.95 150.264 164.781C148.959 162.152 146.118 160.374 143.174 160.348H143.073C141.019 160.366 139.041 161.181 137.588 162.586C135.781 164.331 134.88 166.961 135.228 169.443C135.629 172.328 137.763 174.859 140.466 175.851V186.962H132.491C132.394 186.973 132.31 186.98 132.235 186.987C131.903 187.018 131.732 187.034 131.34 187.225C130.806 187.481 130.357 187.925 130.096 188.468C129.926 188.824 129.879 189.226 129.833 189.623V197.606H118.746C118.651 197.332 118.542 197.066 118.414 196.805C117.128 194.133 114.261 192.313 111.282 192.284H111.178C109.126 192.303 107.149 193.117 105.696 194.522C103.891 196.265 102.985 198.892 103.333 201.38C103.796 204.677 106.519 207.514 109.772 208.118C113.28 208.77 116.918 206.84 118.414 203.729C118.542 203.469 118.651 203.203 118.746 202.928H129.833V213.493H97.4549C97.3512 213.203 97.229 212.918 97.0882 212.644C95.7727 210.034 92.9452 208.28 90.0193 208.251H89.9183C87.888 208.272 85.9162 209.073 84.4679 210.457C82.6422 212.2 81.7227 214.845 82.0735 217.349C82.5333 220.644 85.2572 223.483 88.5099 224.087C92.0177 224.736 95.6558 222.807 97.1546 219.699ZM156.658 286.554C155.866 284.854 157.304 282.789 159.052 282.77H159.121C160.059 282.791 160.931 283.326 161.385 284.125C162.148 285.471 161.457 287.331 160.073 287.898C158.816 288.412 157.229 287.776 156.658 286.554ZM172.611 265.279C171.803 263.57 173.248 261.497 174.997 261.479C175.021 261.479 175.045 261.479 175.069 261.481C176.009 261.502 176.886 262.04 177.338 262.846C178.09 264.19 177.397 266.042 176.017 266.607C174.766 267.12 173.187 266.489 172.611 265.279ZM140.713 265.263C139.918 263.562 141.359 261.497 143.105 261.479C143.129 261.479 143.153 261.479 143.176 261.481C144.115 261.502 144.994 262.04 145.446 262.846C146.195 264.19 145.504 266.042 144.125 266.607C142.868 267.12 141.282 266.484 140.713 265.263ZM108.826 233.34C108.018 231.634 109.464 229.558 111.213 229.542H111.282C112.222 229.564 113.102 230.104 113.554 230.91C114.303 232.254 113.612 234.106 112.233 234.67C110.981 235.181 109.4 234.553 108.826 233.34ZM204.505 233.34C203.695 231.634 205.14 229.558 206.892 229.542H206.961C207.902 229.564 208.781 230.104 209.23 230.91C209.982 232.254 209.291 234.106 207.91 234.67C206.661 235.181 205.079 234.553 204.505 233.34ZM92.2994 214.957C92.4536 215.239 92.5466 215.542 92.5838 215.851C92.5598 216.058 92.5598 216.266 92.5838 216.471C92.4722 217.429 91.8663 218.336 90.9707 218.701C89.719 219.215 88.1405 218.586 87.5638 217.373C86.756 215.667 88.2016 213.592 89.9502 213.576H90.022C90.968 213.597 91.8503 214.142 92.2994 214.957ZM225.76 217.357C225.616 217.051 225.544 216.729 225.536 216.412C225.539 216.356 225.539 216.298 225.539 216.242C225.595 214.869 226.78 213.589 228.151 213.576H228.223C229.164 213.597 230.041 214.134 230.493 214.943C231.245 216.287 230.554 218.137 229.172 218.701C227.915 219.217 226.328 218.579 225.76 217.357ZM108.826 201.404C108.018 199.698 109.467 197.622 111.213 197.606H111.282C112.222 197.627 113.102 198.168 113.554 198.974C114.303 200.318 113.612 202.167 112.233 202.734C110.981 203.245 109.4 202.617 108.826 201.404ZM204.505 201.404C203.695 199.698 205.143 197.622 206.892 197.606H206.961C207.902 197.627 208.781 198.168 209.23 198.974C209.982 200.318 209.291 202.167 207.91 202.734C206.661 203.245 205.079 202.617 204.505 201.404ZM172.611 169.467C171.803 167.762 173.248 165.686 174.997 165.67H175.069C176.009 165.691 176.886 166.229 177.338 167.038C178.09 168.382 177.397 170.231 176.017 170.795C174.766 171.309 173.187 170.681 172.611 169.467ZM140.538 167.714C140.811 166.554 141.93 165.681 143.105 165.67H143.176C144.787 165.705 145.983 167.277 145.746 168.754C145.486 170.401 143.556 171.405 142.09 170.785C140.939 170.295 140.248 168.925 140.538 167.714ZM156.666 148.176C155.858 146.47 157.304 144.394 159.052 144.378H159.121C160.062 144.4 160.942 144.94 161.393 145.746C162.143 147.09 161.452 148.94 160.073 149.506C158.821 150.017 157.24 149.389 156.666 148.176ZM151.365 232.837H167.301L169.797 239.301H178.501L159.557 193.925H158.917L140.037 239.301H148.997L151.365 232.837ZM160.261 214.469L164.933 226.629H153.669L158.149 214.469L159.173 210.885L160.261 214.469Z" fill="#333333"/>
</g>
</svg>
