<svg width="332" height="327" viewBox="0 0 332 327" fill="none" xmlns="http://www.w3.org/2000/svg">
<path d="M51.8785 207.259V219.708C51.8795 222.351 52.5183 224.955 53.7404 227.298C54.9626 229.643 56.7319 231.655 58.8978 233.167L108.173 183.827L94.5124 170.148C94.1468 169.783 93.713 169.493 93.2355 169.294C92.7581 169.096 92.2462 168.994 91.7294 168.994C91.2125 168.994 90.7008 169.096 90.2234 169.294C89.7459 169.493 89.312 169.783 88.9465 170.148L51.8785 207.259Z" fill="#333333"/>
<path d="M91.7251 153.997C93.377 153.993 95.0134 154.316 96.5394 154.95C98.0655 155.583 99.4508 156.513 100.615 157.686L117.443 174.535L151.992 139.941C155.576 136.358 160.433 134.347 165.497 134.347C170.56 134.347 175.417 136.358 179.001 139.941L227.04 188.042L241.888 173.175C244.248 170.818 247.444 169.494 250.778 169.494C254.111 169.494 257.308 170.818 259.667 173.175L279.116 192.665V107.299C279.116 104.417 278.358 101.585 276.917 99.089C275.478 96.5926 273.407 94.5198 270.914 93.0785L173.697 36.8772C171.204 35.4357 168.374 34.6768 165.495 34.6768C162.616 34.6768 159.787 35.4357 157.294 36.8772L60.0743 93.0785C57.5812 94.5198 55.5107 96.5926 54.071 99.089C52.6314 101.585 51.8733 104.417 51.8727 107.299V188.68L82.8294 157.684C83.9947 156.511 85.3812 155.58 86.9081 154.949C88.4352 154.316 90.0725 153.992 91.7251 153.997Z" fill="#333333"/>
<path d="M236.315 197.337L272.091 233.165C274.257 231.653 276.026 229.64 277.248 227.297C278.47 224.953 279.107 222.35 279.109 219.706V211.239L253.55 185.648C252.812 184.909 251.811 184.494 250.767 184.494C249.722 184.494 248.721 184.909 247.983 185.648L236.315 197.337Z" fill="#333333"/>
<path d="M165.498 19.581C168.713 19.5801 171.874 20.4274 174.658 22.0375L283.27 84.8254C286.056 86.4357 288.368 88.7514 289.976 91.5403C291.584 94.3291 292.431 97.4926 292.431 100.713V226.289C292.431 229.508 291.584 232.671 289.976 235.461C288.368 238.248 286.056 240.565 283.27 242.175L174.658 304.963C171.872 306.572 168.713 307.42 165.497 307.42C162.281 307.42 159.121 306.572 156.336 304.963L47.7239 242.175C44.9388 240.565 42.6259 238.248 41.018 235.461C39.4101 232.671 38.5636 229.508 38.5636 226.289V100.713C38.5636 97.4926 39.4101 94.3291 41.018 91.5403C42.6261 88.7514 44.9388 86.4357 47.7239 84.8254L156.336 22.0375C159.122 20.4275 162.282 19.5802 165.498 19.581ZM165.498 6C159.901 6.00219 154.404 7.47724 149.556 10.2773L40.9421 73.0652C36.1011 75.874 32.081 79.9056 29.2834 84.7572C26.4859 89.6089 25.0089 95.1107 25 100.713V226.289C25.0092 231.891 26.4865 237.393 29.2842 242.244C32.082 247.096 36.1023 251.127 40.9435 253.936L149.556 316.724C154.403 319.526 159.901 321 165.498 321C171.095 321 176.593 319.526 181.44 316.724L290.052 253.936C294.894 251.129 298.916 247.096 301.714 242.245C304.512 237.393 305.99 231.891 306 226.289V100.713C305.992 95.1107 304.514 89.6089 301.717 84.7573C298.918 79.9057 294.898 75.874 290.058 73.0652L181.446 10.2773C176.598 7.47743 171.1 6.00239 165.504 6H165.498Z" fill="#333333"/>
<path d="M172.106 116.238V118.849C172.106 120.233 171.557 121.561 170.579 122.541C169.601 123.52 168.275 124.07 166.892 124.07H161.677C160.295 124.07 158.968 123.52 157.99 122.541C157.012 121.561 156.463 120.233 156.463 118.849V116.238H172.106ZM174.713 111.017V111.735C174.713 112.237 174.514 112.719 174.16 113.073C173.805 113.428 173.324 113.628 172.823 113.628H155.746C155.245 113.628 154.764 113.428 154.41 113.073C154.055 112.719 153.856 112.237 153.856 111.735V111.017H174.713Z" fill="#F2F2F2"/>
<path d="M174.713 105.796H153.856V108.407H174.713V105.796Z" fill="#F2F2F2"/>
<path d="M166.24 89.0891V103.186H162.329V89.0891L164.285 87.7838L166.24 89.0891Z" fill="#F2F2F2"/>
<path d="M179.067 59.238C176.741 57.1369 173.993 55.5583 171.007 54.6082C168.021 53.6582 164.867 53.3587 161.756 53.7299C157.642 54.2071 153.745 55.8288 150.505 58.411C147.265 60.9932 144.812 64.4327 143.425 68.3395C142.038 72.2463 141.772 76.464 142.657 80.5144C143.543 84.5649 145.543 88.286 148.433 91.2558C151.606 94.4561 153.53 98.6882 153.856 103.186H159.722V89.9636L154.573 87.3531C154.291 87.1832 154.084 86.9127 153.992 86.596C153.901 86.2794 153.933 85.9399 154.082 85.6458C154.23 85.3516 154.484 85.1247 154.793 85.0104C155.102 84.8962 155.442 84.9031 155.746 85.0298L160.283 87.3009L162.89 85.591C163.318 85.3048 163.822 85.1521 164.337 85.1521C164.852 85.1521 165.355 85.3048 165.784 85.591L168.391 87.3009L172.927 85.0298C173.081 84.9372 173.252 84.8774 173.43 84.854C173.607 84.8306 173.788 84.8442 173.96 84.8939C174.133 84.9436 174.293 85.0283 174.431 85.1428C174.569 85.2573 174.682 85.399 174.763 85.5592C174.844 85.7194 174.891 85.8945 174.901 86.0737C174.911 86.2529 174.884 86.4323 174.822 86.6007C174.76 86.769 174.664 86.9227 174.54 87.0522C174.416 87.1817 174.266 87.2841 174.101 87.3531L168.886 89.9636V103.186H174.713C175.079 98.6405 177.026 94.3678 180.214 91.1122C184.209 87.0087 186.444 81.5056 186.446 75.7755C186.446 72.6545 185.79 69.5683 184.518 66.7187C183.247 63.869 181.39 61.32 179.067 59.238V59.238ZM164.285 82.3018C163.769 82.3018 163.265 82.1487 162.836 81.8618C162.407 81.575 162.073 81.1673 161.876 80.6903C161.679 80.2133 161.627 79.6884 161.728 79.182C161.828 78.6756 162.076 78.2105 162.441 77.8454C162.806 77.4803 163.27 77.2317 163.776 77.131C164.282 77.0302 164.806 77.0819 165.282 77.2795C165.759 77.4771 166.166 77.8117 166.452 78.241C166.739 78.6703 166.892 79.175 166.892 79.6913C166.892 80.3836 166.617 81.0476 166.128 81.5372C165.639 82.0268 164.976 82.3018 164.285 82.3018ZM170.503 75.2926C170.381 75.4423 170.228 75.5633 170.055 75.6468C169.881 75.7303 169.692 75.7743 169.499 75.7755C169.198 75.78 168.905 75.6731 168.678 75.4753L168.404 75.2534C167.241 74.3036 165.786 73.7848 164.285 73.7848C162.784 73.7848 161.329 74.3036 160.165 75.2534L159.892 75.4753C159.763 75.6046 159.608 75.7054 159.438 75.7712C159.268 75.837 159.087 75.8664 158.904 75.8575C158.722 75.8485 158.544 75.8014 158.381 75.7192C158.219 75.637 158.075 75.5216 157.959 75.3803C157.844 75.239 157.759 75.0751 157.711 74.8991C157.663 74.7231 157.652 74.5389 157.679 74.3584C157.707 74.1779 157.772 74.0052 157.87 73.8513C157.968 73.6975 158.097 73.566 158.249 73.4653L158.523 73.2303C160.151 71.9032 162.185 71.1785 164.285 71.1785C166.384 71.1785 168.419 71.9032 170.046 73.2303L170.32 73.4653C170.585 73.6844 170.753 73.9992 170.787 74.3414C170.821 74.6835 170.719 75.0254 170.503 75.2926V75.2926ZM173.188 69.9672C173.07 70.1467 172.909 70.2943 172.721 70.3968C172.532 70.4992 172.321 70.5534 172.106 70.5545C171.85 70.5575 171.599 70.4799 171.389 70.3327C169.285 68.9291 166.813 68.1801 164.285 68.1801C161.756 68.1801 159.284 68.9291 157.18 70.3327C157.039 70.4466 156.875 70.5297 156.7 70.5768C156.525 70.6239 156.342 70.6338 156.163 70.606C155.983 70.5782 155.812 70.5132 155.659 70.4153C155.507 70.3173 155.376 70.1885 155.276 70.0372C155.176 69.8858 155.108 69.7151 155.077 69.5361C155.047 69.3571 155.054 69.1736 155.098 68.9975C155.142 68.8214 155.223 68.6565 155.335 68.5133C155.446 68.3701 155.586 68.2518 155.746 68.1659C158.271 66.4685 161.243 65.562 164.285 65.562C167.326 65.562 170.298 66.4685 172.823 68.1659C173.109 68.3573 173.308 68.654 173.376 68.9913C173.444 69.3287 173.377 69.6794 173.188 69.9672V69.9672ZM175.795 64.7462C175.677 64.9257 175.517 65.0733 175.328 65.1758C175.139 65.2782 174.928 65.3324 174.713 65.3336C174.469 65.3343 174.23 65.2665 174.022 65.1378L173.266 64.6679C170.57 62.9911 167.459 62.1026 164.285 62.1026C161.11 62.1026 157.999 62.9911 155.303 64.6679L154.547 65.1378C154.401 65.2286 154.239 65.2899 154.07 65.318C153.901 65.3462 153.728 65.3408 153.561 65.302C153.224 65.2236 152.931 65.0143 152.748 64.7201C152.565 64.4258 152.506 64.0708 152.584 63.733C152.662 63.3952 152.871 63.1023 153.165 62.9188L153.921 62.449C157.033 60.5158 160.622 59.4915 164.285 59.4915C167.947 59.4915 171.536 60.5158 174.648 62.449L175.404 62.9188C175.55 63.0095 175.676 63.128 175.776 63.2677C175.876 63.4074 175.947 63.5654 175.986 63.7327C176.025 63.9001 176.03 64.0734 176.002 64.2429C175.974 64.4123 175.912 64.5745 175.821 64.7201L175.795 64.7462Z" fill="#F2F2F2"/>
<path d="M102.674 224.676C102.586 224.921 102.485 225.163 102.373 225.397C100.874 228.506 97.2364 230.435 93.7285 229.786C90.4758 229.182 87.7519 226.342 87.2921 223.048C86.9414 220.544 87.8608 217.898 89.6865 216.155C91.1348 214.772 93.1067 213.971 95.137 213.949C95.1689 213.949 95.2034 213.949 95.238 213.949C98.1638 213.979 100.991 215.732 102.307 218.343C102.448 218.617 102.57 218.902 102.674 219.192H135.052V208.627H123.965C123.869 208.901 123.76 209.167 123.633 209.428C122.137 212.539 118.499 214.468 114.991 213.816C111.738 213.212 109.014 210.375 108.552 207.078C108.204 204.59 109.11 201.964 110.914 200.221C112.368 198.815 114.345 198.001 116.397 197.983C116.431 197.983 116.466 197.983 116.5 197.983C119.479 198.012 122.347 199.832 123.633 202.504C123.76 202.765 123.869 203.031 123.965 203.305H135.052V195.321C135.097 194.925 135.145 194.523 135.315 194.166C135.576 193.624 136.025 193.179 136.559 192.924C137.04 192.69 137.189 192.719 137.709 192.66H145.685V181.55C142.982 180.557 140.848 178.027 140.447 175.142C140.099 172.659 140.999 170.03 142.806 168.284C144.26 166.879 146.237 166.065 148.291 166.046C148.323 166.046 148.358 166.046 148.392 166.046C151.337 166.073 154.178 167.851 155.483 170.48C156.561 172.649 156.577 175.31 155.528 177.492C154.627 179.36 152.953 180.802 150.999 181.515V192.66H161.629V160.266C161.496 160.218 161.361 160.168 161.228 160.112C158.685 159.053 156.777 156.591 156.391 153.85C156.046 151.378 156.936 148.768 158.719 147.027C160.176 145.601 162.177 144.773 164.236 144.755C164.271 144.755 164.305 144.755 164.34 144.755C167.284 144.781 170.125 146.562 171.43 149.188C172.506 151.357 172.525 154.018 171.473 156.2C170.577 158.066 168.897 159.487 166.947 160.195V192.66H177.577V181.55C174.874 180.557 172.743 178.027 172.339 175.142C171.993 172.67 172.884 170.059 174.664 168.316C176.123 166.893 178.132 166.065 180.184 166.046C180.218 166.046 180.25 166.046 180.285 166.046C183.229 166.073 186.07 167.851 187.377 170.48C188.454 172.649 188.47 175.31 187.42 177.492C186.519 179.36 184.845 180.802 182.892 181.515V192.66H190.864L191.457 192.727C192.023 192.924 192.575 193.2 192.942 193.661C193.192 193.975 193.367 194.339 193.455 194.728C193.5 194.922 193.5 195.124 193.524 195.321V203.305H204.627C205.034 202.158 205.69 201.104 206.559 200.255C208.015 198.829 210.024 198.001 212.076 197.983C212.11 197.983 212.145 197.983 212.179 197.983C215.121 198.009 217.962 199.787 219.27 202.416C220.346 204.585 220.364 207.246 219.312 209.428C217.816 212.539 214.175 214.468 210.67 213.816C207.938 213.311 205.584 211.23 204.622 208.627H193.524V219.192H225.919C226.341 218.034 227.024 216.97 227.922 216.123C229.373 214.756 231.337 213.971 233.338 213.949C233.373 213.949 233.405 213.949 233.439 213.949C236.418 213.979 239.288 215.799 240.574 218.473C241.608 220.621 241.611 223.245 240.574 225.397C239.076 228.506 235.438 230.435 231.932 229.786C229.23 229.283 226.894 227.242 225.913 224.676H193.524V235.241H204.627C205.044 234.067 205.724 232.984 206.625 232.125C208.076 230.741 210.046 229.937 212.076 229.919C212.11 229.919 212.145 229.919 212.177 229.919C215.14 229.948 217.994 231.747 219.291 234.397C220.348 236.558 220.354 239.201 219.312 241.364C217.816 244.475 214.175 246.404 210.67 245.752C207.938 245.247 205.584 243.166 204.622 240.563H193.524V248.549C193.455 249.145 193.309 249.747 192.942 250.207C192.695 250.521 192.379 250.774 192.017 250.947C191.536 251.178 191.387 251.152 190.864 251.21H182.892V262.337C184.824 263.044 186.492 264.481 187.399 266.334C188.454 268.494 188.462 271.137 187.42 273.303C185.695 276.882 181.085 278.841 177.175 277.212C174.627 276.153 172.721 273.684 172.339 270.953C171.988 268.449 172.908 265.804 174.733 264.061C175.544 263.287 176.519 262.693 177.577 262.318V251.21H166.947V283.631C168.879 284.336 170.548 285.773 171.451 287.625C172.509 289.786 172.514 292.429 171.473 294.592C169.748 298.174 165.137 300.132 161.228 298.504C158.685 297.445 156.777 294.983 156.391 292.245C156.049 289.791 156.92 287.197 158.685 285.451C159.517 284.629 160.529 284.001 161.629 283.61V251.21H150.999V262.337C152.931 263.044 154.6 264.481 155.506 266.334C156.561 268.494 156.569 271.137 155.528 273.303C153.8 276.885 149.19 278.843 145.283 277.212C142.735 276.153 140.827 273.684 140.447 270.953C140.096 268.449 141.015 265.804 142.841 264.061C143.652 263.287 144.627 262.693 145.685 262.318V251.21H137.709C137.114 251.141 136.514 250.997 136.054 250.63C135.74 250.38 135.49 250.063 135.315 249.704C135.084 249.22 135.11 249.071 135.052 248.549V240.563H123.965C123.869 240.837 123.76 241.106 123.633 241.367C122.137 244.475 118.499 246.404 114.991 245.752C111.738 245.148 109.014 242.312 108.552 239.017C108.204 236.51 109.123 233.868 110.949 232.125C112.397 230.741 114.369 229.937 116.397 229.919C116.431 229.919 116.466 229.919 116.5 229.919C119.461 229.948 122.317 231.747 123.612 234.397C123.747 234.671 123.864 234.954 123.965 235.241H135.052V224.676H102.674V224.676ZM164.271 288.469C162.522 288.487 161.084 290.552 161.876 292.253C162.448 293.474 164.034 294.11 165.291 293.597C166.676 293.03 167.367 291.17 166.604 289.823C166.15 289.025 165.278 288.49 164.34 288.469C164.316 288.469 164.295 288.469 164.271 288.469V288.469ZM180.216 267.177C178.467 267.196 177.021 269.269 177.829 270.977C178.406 272.188 179.984 272.819 181.236 272.305C182.615 271.741 183.309 269.889 182.557 268.545C182.105 267.739 181.228 267.201 180.287 267.18C180.263 267.177 180.239 267.177 180.216 267.177V267.177ZM148.323 267.177C146.577 267.196 145.137 269.261 145.932 270.961C146.5 272.183 148.087 272.819 149.344 272.305C150.723 271.741 151.414 269.889 150.665 268.545C150.213 267.739 149.333 267.201 148.395 267.18C148.371 267.177 148.347 267.177 148.323 267.177V267.177ZM116.431 235.241C114.683 235.257 113.237 237.333 114.045 239.038C114.619 240.252 116.2 240.88 117.452 240.369C118.831 239.805 119.522 237.953 118.772 236.609C118.321 235.802 117.441 235.262 116.5 235.241C116.479 235.241 116.455 235.241 116.431 235.241ZM212.11 235.241C210.359 235.257 208.913 237.333 209.724 239.038C210.298 240.252 211.879 240.88 213.128 240.369C214.51 239.805 215.201 237.953 214.449 236.609C214 235.802 213.12 235.262 212.179 235.241C212.156 235.241 212.132 235.241 212.11 235.241V235.241ZM97.8024 221.549C97.7652 221.241 97.6722 220.937 97.5181 220.655C97.0689 219.841 96.1867 219.295 95.2406 219.274C95.2167 219.274 95.1928 219.274 95.1689 219.274C93.4202 219.29 91.9746 221.366 92.7825 223.072C93.3591 224.285 94.9377 224.913 96.1893 224.399C97.0849 224.035 97.6908 223.127 97.8024 222.169C97.7785 221.965 97.7785 221.757 97.8024 221.549V221.549ZM230.755 222.111C230.763 222.428 230.835 222.75 230.978 223.056C231.547 224.277 233.134 224.916 234.391 224.399C235.772 223.835 236.463 221.986 235.711 220.642C235.259 219.833 234.383 219.295 233.442 219.274C233.418 219.274 233.394 219.274 233.37 219.274C231.999 219.287 230.814 220.567 230.758 221.941C230.758 221.997 230.758 222.055 230.755 222.111V222.111ZM116.431 203.305C114.685 203.321 113.237 205.396 114.045 207.102C114.619 208.316 116.2 208.944 117.452 208.433C118.831 207.866 119.522 206.016 118.772 204.673C118.321 203.866 117.441 203.326 116.5 203.305C116.479 203.305 116.455 203.305 116.431 203.305ZM212.11 203.305C210.362 203.321 208.913 205.396 209.724 207.102C210.298 208.316 211.879 208.944 213.128 208.433C214.51 207.866 215.201 206.016 214.449 204.673C214 203.866 213.12 203.326 212.179 203.305C212.156 203.305 212.132 203.305 212.11 203.305V203.305ZM180.216 171.369C178.467 171.385 177.021 173.46 177.829 175.166C178.406 176.379 179.984 177.008 181.236 176.494C182.615 175.93 183.309 174.08 182.557 172.736C182.105 171.927 181.228 171.39 180.287 171.369C180.263 171.369 180.239 171.369 180.216 171.369V171.369ZM148.323 171.369C147.149 171.379 146.03 172.252 145.756 173.412C145.467 174.623 146.158 175.994 147.308 176.483C148.775 177.103 150.704 176.1 150.965 174.453C151.201 172.976 150.006 171.403 148.395 171.369C148.371 171.369 148.347 171.369 148.323 171.369ZM164.271 150.077C162.522 150.093 161.077 152.169 161.884 153.874C162.458 155.088 164.04 155.716 165.291 155.205C166.67 154.638 167.361 152.789 166.612 151.445C166.16 150.638 165.281 150.098 164.34 150.077C164.316 150.077 164.295 150.077 164.271 150.077V150.077Z" fill="#333333"/>
<path d="M172.52 238.536H156.584L154.216 245H145.256L164.136 199.624H164.776L183.72 245H175.016L172.52 238.536ZM170.152 232.328L165.48 220.168L164.392 216.584L163.368 220.168L158.888 232.328H170.152Z" fill="#F2F2F2"/>
</svg>
