<svg width="315" height="317" viewBox="0 0 315 317" fill="none" xmlns="http://www.w3.org/2000/svg">
<g id="White-TP">
<g id="Side">
<path id="Vector" d="M44.8786 202.26V214.708C44.8796 217.351 45.5183 219.955 46.7405 222.298C47.9627 224.643 49.7319 226.655 51.8978 228.167L101.173 178.827L87.5124 165.148C87.1469 164.783 86.7131 164.493 86.2355 164.295C85.7581 164.096 85.2463 163.994 84.7294 163.994C84.2126 163.994 83.7008 164.096 83.2234 164.295C82.7459 164.493 82.3121 164.783 81.9466 165.148L44.8786 202.26Z" fill="#F2F2F2"/>
<path id="Vector_2" d="M229.316 192.337L265.091 228.166C267.258 226.653 269.027 224.64 270.248 222.297C271.47 219.954 272.108 217.35 272.109 214.706V206.24L246.55 180.648C245.812 179.909 244.811 179.494 243.767 179.494C242.722 179.494 241.721 179.909 240.983 180.648L229.316 192.337Z" fill="#F2F2F2"/>
</g>
<path id="Border" d="M158.441 14.581C161.656 14.5788 164.817 15.4248 167.602 17.0338L276.239 79.7786C279.026 81.3877 281.338 83.7026 282.947 86.4908C284.556 89.2789 285.404 92.4421 285.406 95.6623L285.456 221.238C285.457 224.458 284.611 227.621 283.005 230.411C281.398 233.2 279.087 235.517 276.302 237.128L167.714 299.959C164.929 301.57 161.771 302.419 158.554 302.42C155.338 302.422 152.178 301.575 149.392 299.966L40.7552 237.221C37.9694 235.613 35.6557 233.297 34.0466 230.51C32.4376 227.721 31.5898 224.559 31.5886 221.339L31.5387 95.7633C31.5374 92.543 32.3826 89.3792 33.9894 86.5898C35.5964 83.8003 37.9081 81.4836 40.6926 79.8722L149.28 17.0411C152.065 15.43 155.224 14.5815 158.441 14.581ZM158.435 1C152.839 1.00441 147.342 2.48165 142.495 5.28367L33.9061 68.1148C29.0663 70.9255 25.0477 74.9586 22.2521 79.8113C19.4565 84.6642 17.9817 90.1665 17.975 95.7687L18.025 221.344C18.0364 226.947 19.5159 232.449 22.3156 237.298C25.1153 242.149 29.1372 246.179 33.9795 248.986L142.617 311.73C147.465 314.53 152.964 316.002 158.561 316C164.157 315.998 169.655 314.522 174.501 311.718L283.088 248.887C287.929 246.077 291.949 242.043 294.745 237.191C297.542 232.338 299.017 226.835 299.025 221.233L298.975 95.6569C298.964 90.0548 297.484 84.5536 294.686 79.7031C291.885 74.8526 287.863 70.8226 283.022 68.0157L174.385 5.27098C169.536 2.47301 164.038 1.00016 158.441 0.999998L158.435 1Z" fill="#F2F2F2"/>
<path id="Lamp" fill-rule="evenodd" clip-rule="evenodd" d="M84.7252 148.997C86.3771 148.993 88.0134 149.316 89.5395 149.95C91.0655 150.583 92.4509 151.513 93.6154 152.686L110.443 169.535L144.992 134.941C148.576 131.358 153.433 129.347 158.497 129.347C163.56 129.347 168.418 131.358 172.001 134.941L220.041 183.042L234.888 168.175C237.248 165.818 240.444 164.494 243.778 164.494C247.111 164.494 250.308 165.818 252.667 168.175L272.116 187.665V102.299C272.116 99.4169 271.358 96.5851 269.917 94.089C268.478 91.5927 266.407 89.5198 263.914 88.0785L166.697 31.8772C164.204 30.4357 161.374 29.6768 158.495 29.6768C155.616 29.6768 152.787 30.4357 150.294 31.8772L53.0743 88.0785C50.5812 89.5198 48.5107 91.5927 47.0711 94.089C45.6314 96.5851 44.8734 99.4169 44.8728 102.299V183.68L75.8295 152.684C76.9948 151.511 78.3813 150.58 79.9082 149.949C81.4352 149.316 83.0726 148.992 84.7252 148.997ZM165.106 111.238V113.849C165.106 115.233 164.557 116.561 163.579 117.541C162.601 118.52 161.275 119.07 159.892 119.07H154.678C153.295 119.07 151.968 118.52 150.99 117.541C150.013 116.561 149.463 115.233 149.463 113.849V111.238H165.106ZM167.713 106.017V106.735C167.713 107.237 167.514 107.719 167.16 108.073C166.805 108.428 166.324 108.628 165.823 108.628H148.746C148.245 108.628 147.764 108.428 147.41 108.073C147.055 107.719 146.856 107.237 146.856 106.735V106.017H167.713ZM146.856 103.407V100.796H167.713V103.407H146.856ZM159.24 84.0891V98.1858H155.329V84.0891L157.285 82.7839L159.24 84.0891ZM164.007 49.6082C166.993 50.5583 169.741 52.1369 172.067 54.2381C174.39 56.32 176.247 58.869 177.518 61.7187C178.79 64.5683 179.447 67.6545 179.446 70.7756C179.444 76.5056 177.209 82.0087 173.214 86.1122C170.026 89.3678 168.079 93.6405 167.713 98.1858H161.886V84.9636L167.101 82.3531C167.266 82.2841 167.416 82.1817 167.54 82.0522C167.664 81.9228 167.76 81.769 167.822 81.6007C167.884 81.4323 167.911 81.253 167.901 81.0738C167.891 80.8946 167.844 80.7194 167.763 80.5592C167.682 80.399 167.569 80.2573 167.431 80.1428C167.293 80.0283 167.133 79.9436 166.96 79.8939C166.788 79.8442 166.608 79.8307 166.43 79.854C166.252 79.8774 166.081 79.9372 165.927 80.0298L161.391 82.3009L158.784 80.591C158.355 80.3048 157.852 80.1521 157.337 80.1521C156.822 80.1521 156.318 80.3048 155.89 80.591L153.283 82.3009L148.746 80.0298C148.442 79.9031 148.102 79.8962 147.793 80.0104C147.484 80.1247 147.23 80.3517 147.082 80.6458C146.933 80.9399 146.901 81.2794 146.992 81.5961C147.084 81.9128 147.291 82.1832 147.573 82.3531L152.722 84.9636V98.1858H146.856C146.53 93.6882 144.606 89.4561 141.433 86.2558C138.543 83.286 136.543 79.5649 135.658 75.5144C134.772 71.464 135.038 67.2463 136.425 63.3395C137.812 59.4327 140.265 55.9932 143.505 53.411C146.745 50.8288 150.642 49.2071 154.756 48.7299C157.867 48.3587 161.021 48.6582 164.007 49.6082ZM155.836 76.8619C156.265 77.1487 156.769 77.3018 157.285 77.3018C157.976 77.3018 158.639 77.0268 159.128 76.5372C159.617 76.0476 159.892 75.3837 159.892 74.6913C159.892 74.175 159.739 73.6703 159.452 73.241C159.166 72.8117 158.759 72.4771 158.282 72.2795C157.806 72.0819 157.282 72.0302 156.776 72.131C156.27 72.2317 155.806 72.4803 155.441 72.8454C155.077 73.2105 154.828 73.6756 154.728 74.182C154.627 74.6884 154.679 75.2133 154.876 75.6903C155.073 76.1673 155.407 76.575 155.836 76.8619ZM163.055 70.6468C163.229 70.5633 163.381 70.4423 163.503 70.2926C163.719 70.0254 163.821 69.6835 163.787 69.3414C163.753 68.9992 163.585 68.6844 163.32 68.4653L163.047 68.2303C161.419 66.9032 159.384 66.1785 157.285 66.1785C155.186 66.1785 153.151 66.9032 151.523 68.2303L151.249 68.4653C151.097 68.566 150.968 68.6975 150.87 68.8514C150.772 69.0052 150.707 69.1779 150.68 69.3584C150.652 69.5389 150.663 69.7231 150.711 69.8991C150.76 70.0751 150.844 70.2391 150.96 70.3803C151.075 70.5216 151.219 70.637 151.381 70.7192C151.544 70.8014 151.722 70.8485 151.904 70.8575C152.087 70.8664 152.268 70.837 152.439 70.7712C152.609 70.7054 152.763 70.6046 152.892 70.4754L153.165 70.2535C154.329 69.3036 155.784 68.7849 157.285 68.7849C158.786 68.7849 160.241 69.3036 161.404 70.2535L161.678 70.4754C161.905 70.6731 162.198 70.78 162.499 70.7756C162.692 70.7743 162.881 70.7303 163.055 70.6468ZM165.721 65.3968C165.91 65.2943 166.07 65.1468 166.188 64.9672C166.377 64.6794 166.444 64.3287 166.376 63.9913C166.308 63.654 166.109 63.3573 165.823 63.166C163.298 61.4685 160.326 60.562 157.285 60.562C154.243 60.562 151.271 61.4685 148.746 63.166C148.586 63.2518 148.446 63.3701 148.335 63.5133C148.223 63.6565 148.143 63.8214 148.098 63.9975C148.054 64.1737 148.047 64.3571 148.077 64.5361C148.108 64.7151 148.176 64.8858 148.276 65.0372C148.376 65.1886 148.507 65.3174 148.659 65.4153C148.812 65.5133 148.984 65.5782 149.163 65.606C149.342 65.6338 149.525 65.6239 149.7 65.5768C149.875 65.5298 150.039 65.4466 150.18 65.3327C152.284 63.9291 154.756 63.1801 157.285 63.1801C159.813 63.1801 162.285 63.9291 164.389 65.3327C164.599 65.4799 164.85 65.5575 165.106 65.5546C165.321 65.5535 165.532 65.4993 165.721 65.3968ZM168.328 60.1758C168.517 60.0733 168.677 59.9258 168.795 59.7462L168.821 59.7201C168.912 59.5745 168.974 59.4123 169.002 59.2429C169.03 59.0735 169.025 58.9001 168.986 58.7328C168.948 58.5654 168.876 58.4074 168.776 58.2677C168.676 58.1281 168.55 58.0095 168.404 57.9189L167.648 57.449C164.536 55.5158 160.947 54.4915 157.285 54.4915C153.623 54.4915 150.033 55.5158 146.921 57.449L146.165 57.9189C145.871 58.1023 145.662 58.3952 145.584 58.733C145.506 59.0708 145.565 59.4259 145.748 59.7201C145.931 60.0143 146.224 60.2237 146.561 60.302C146.728 60.3408 146.901 60.3462 147.07 60.3181C147.239 60.2899 147.401 60.2286 147.547 60.1378L148.303 59.6679C151 57.9912 154.11 57.1026 157.285 57.1026C160.459 57.1026 163.57 57.9912 166.266 59.6679L167.022 60.1378C167.23 60.2665 167.469 60.3344 167.713 60.3336C167.928 60.3325 168.139 60.2783 168.328 60.1758Z" fill="#F2F2F2"/>
<path id="Chip" fill-rule="evenodd" clip-rule="evenodd" d="M97.1546 220.643C97.2662 220.409 97.3672 220.167 97.4549 219.922H129.833V230.486H118.746C118.646 230.199 118.529 229.917 118.393 229.643C117.099 226.992 114.242 225.193 111.282 225.164H111.178C109.15 225.183 107.179 225.986 105.73 227.37C103.905 229.113 102.985 231.756 103.333 234.263C103.796 237.557 106.52 240.394 109.772 240.998C113.28 241.65 116.918 239.721 118.414 236.612C118.542 236.352 118.651 236.083 118.746 235.809H129.833V243.795C129.844 243.889 129.852 243.971 129.859 244.045C129.891 244.381 129.907 244.553 130.097 244.95C130.272 245.309 130.522 245.626 130.835 245.876C131.295 246.243 131.896 246.387 132.491 246.456H140.466V257.563C139.408 257.939 138.433 258.532 137.622 259.306C135.797 261.049 134.877 263.695 135.228 266.199C135.608 268.929 137.516 271.399 140.065 272.458C143.971 274.089 148.582 272.13 150.309 268.549C151.351 266.382 151.343 263.74 150.288 261.579C149.382 259.727 147.713 258.29 145.781 257.582V246.456H156.411V278.855C155.31 279.246 154.298 279.874 153.466 280.697C151.702 282.442 150.83 285.037 151.173 287.49C151.558 290.229 153.466 292.69 156.009 293.749C159.919 295.378 164.529 293.419 166.254 289.838C167.296 287.674 167.29 285.032 166.233 282.871C165.329 281.019 163.66 279.582 161.728 278.876V246.456H172.358V257.563C171.3 257.939 170.325 258.532 169.515 259.306C167.689 261.049 166.769 263.695 167.12 266.199C167.503 268.929 169.408 271.399 171.957 272.458C175.866 274.086 180.477 272.128 182.201 268.549C183.243 266.382 183.235 263.74 182.18 261.579C181.274 259.727 179.605 258.29 177.673 257.582V246.456H185.645C185.739 246.445 185.821 246.438 185.895 246.431C186.233 246.399 186.404 246.382 186.799 246.192C187.16 246.019 187.476 245.767 187.724 245.453C188.09 244.992 188.236 244.391 188.305 243.795V235.809H199.403C200.365 238.411 202.72 240.492 205.451 240.998C208.957 241.65 212.597 239.721 214.093 236.61C215.135 234.446 215.13 231.804 214.072 229.643C212.775 226.992 209.921 225.193 206.958 225.164H206.857C204.827 225.183 202.858 225.986 201.407 227.37C200.506 228.23 199.826 229.313 199.408 230.486H188.305V219.922H220.695C221.675 222.487 224.011 224.528 226.714 225.031C230.219 225.68 233.857 223.751 235.356 220.643C236.392 218.49 236.39 215.866 235.356 213.719C234.07 211.044 231.2 209.224 228.221 209.195H228.12C226.118 209.216 224.155 210.001 222.704 211.369C221.805 212.215 221.122 213.28 220.7 214.437H188.305V203.873H199.403C200.365 206.475 202.72 208.556 205.451 209.062C208.957 209.714 212.597 207.784 214.093 204.674C215.146 202.491 215.127 199.83 214.051 197.661C212.743 195.032 209.903 193.255 206.961 193.228H206.857C204.806 193.247 202.797 194.074 201.34 195.501C200.471 196.35 199.815 197.403 199.408 198.55H188.305V190.567C188.297 190.499 188.292 190.43 188.286 190.361C188.276 190.231 188.266 190.1 188.236 189.973C188.149 189.585 187.973 189.22 187.724 188.906C187.357 188.446 186.804 188.169 186.238 187.972L185.645 187.906H177.673V176.761C179.626 176.048 181.3 174.605 182.201 172.737C183.251 170.555 183.235 167.894 182.159 165.725C180.851 163.096 178.01 161.318 175.066 161.292H174.965C172.913 161.31 170.904 162.138 169.446 163.562C167.665 165.305 166.775 167.915 167.12 170.388C167.524 173.272 169.655 175.803 172.358 176.796V187.906H161.728V155.44C163.679 154.732 165.358 153.311 166.254 151.446C167.306 149.264 167.288 146.602 166.211 144.434C164.907 141.807 162.066 140.027 159.121 140H159.018C156.958 140.019 154.957 140.846 153.501 142.273C151.718 144.013 150.827 146.624 151.173 149.096C151.558 151.837 153.466 154.298 156.009 155.358C156.142 155.413 156.278 155.464 156.411 155.512V187.906H145.781V176.761C147.734 176.048 149.408 174.605 150.309 172.737C151.359 170.555 151.343 167.894 150.264 165.725C148.959 163.096 146.118 161.318 143.174 161.292H143.073C141.019 161.31 139.042 162.125 137.588 163.53C135.781 165.276 134.88 167.905 135.228 170.388C135.629 173.272 137.763 175.803 140.466 176.796V187.906H132.491C132.394 187.917 132.31 187.924 132.235 187.932C131.903 187.963 131.732 187.979 131.34 188.169C130.806 188.425 130.357 188.869 130.097 189.412C129.926 189.769 129.879 190.17 129.833 190.567V198.55H118.746C118.651 198.276 118.542 198.01 118.414 197.749C117.128 195.078 114.261 193.257 111.282 193.228H111.178C109.126 193.247 107.149 194.061 105.696 195.466C103.891 197.209 102.985 199.836 103.333 202.324C103.796 205.621 106.52 208.458 109.772 209.062C113.28 209.714 116.918 207.784 118.414 204.674C118.542 204.413 118.651 204.147 118.746 203.873H129.833V214.437H97.4549C97.3513 214.147 97.229 213.862 97.0882 213.588C95.7728 210.978 92.9452 209.224 90.0193 209.195H89.9184C87.8881 209.216 85.9162 210.017 84.4679 211.401C82.6422 213.144 81.7228 215.789 82.0735 218.293C82.5333 221.588 85.2572 224.427 88.5099 225.031C92.0178 225.68 95.6558 223.751 97.1546 220.643ZM156.658 287.498C155.866 285.798 157.304 283.733 159.052 283.714H159.121C160.059 283.736 160.931 284.27 161.385 285.069C162.148 286.415 161.457 288.275 160.073 288.842C158.816 289.356 157.229 288.72 156.658 287.498ZM172.611 266.223C171.803 264.514 173.248 262.441 174.997 262.423C175.021 262.423 175.045 262.423 175.069 262.425C176.009 262.447 176.886 262.984 177.338 263.79C178.09 265.134 177.397 266.986 176.017 267.551C174.766 268.064 173.187 267.434 172.611 266.223ZM140.713 266.207C139.918 264.506 141.359 262.441 143.105 262.423C143.129 262.423 143.153 262.423 143.177 262.425C144.115 262.447 144.994 262.984 145.446 263.79C146.195 265.134 145.504 266.986 144.125 267.551C142.868 268.064 141.282 267.428 140.713 266.207ZM108.826 234.284C108.018 232.578 109.464 230.502 111.213 230.486H111.282C112.222 230.508 113.102 231.048 113.554 231.854C114.303 233.198 113.612 235.05 112.233 235.614C110.981 236.125 109.4 235.497 108.826 234.284ZM204.505 234.284C203.695 232.578 205.141 230.502 206.892 230.486H206.961C207.902 230.508 208.781 231.048 209.23 231.854C209.982 233.198 209.291 235.05 207.91 235.614C206.661 236.125 205.079 235.497 204.505 234.284ZM92.2994 215.901C92.4536 216.183 92.5466 216.486 92.5838 216.795C92.5599 217.003 92.5599 217.21 92.5838 217.415C92.4722 218.373 91.8663 219.28 90.9707 219.645C89.7191 220.159 88.1405 219.531 87.5639 218.317C86.756 216.611 88.2016 214.536 89.9503 214.52H90.022C90.9681 214.541 91.8503 215.087 92.2994 215.901ZM225.76 218.301C225.616 217.995 225.544 217.673 225.537 217.356C225.539 217.301 225.539 217.242 225.539 217.186C225.595 215.813 226.78 214.533 228.151 214.52H228.223C229.164 214.541 230.041 215.079 230.493 215.888C231.245 217.231 230.554 219.081 229.172 219.645C227.915 220.161 226.328 219.523 225.76 218.301ZM108.826 202.348C108.018 200.642 109.467 198.566 111.213 198.55H111.282C112.222 198.572 113.102 199.112 113.554 199.918C114.303 201.262 113.612 203.111 112.233 203.678C110.981 204.189 109.4 203.561 108.826 202.348ZM204.505 202.348C203.695 200.642 205.143 198.566 206.892 198.55H206.961C207.902 198.572 208.781 199.112 209.23 199.918C209.982 201.262 209.291 203.111 207.91 203.678C206.661 204.189 205.079 203.561 204.505 202.348ZM172.611 170.412C171.803 168.706 173.248 166.63 174.997 166.614H175.069C176.009 166.635 176.886 167.173 177.338 167.982C178.09 169.326 177.397 171.175 176.017 171.739C174.766 172.253 173.187 171.625 172.611 170.412ZM140.538 168.658C140.811 167.498 141.93 166.625 143.105 166.614H143.177C144.787 166.649 145.983 168.221 145.746 169.698C145.486 171.346 143.557 172.349 142.09 171.729C140.939 171.239 140.248 169.869 140.538 168.658ZM156.666 149.12C155.858 147.414 157.304 145.338 159.052 145.322H159.121C160.062 145.344 160.942 145.884 161.393 146.69C162.143 148.034 161.452 149.884 160.073 150.45C158.821 150.961 157.24 150.333 156.666 149.12ZM151.365 233.782H167.301L169.797 240.246H178.501L159.557 194.87H158.917L140.037 240.246H148.997L151.365 233.782ZM160.261 215.414L164.933 227.574H153.669L158.149 215.414L159.173 211.83L160.261 215.414Z" fill="#F2F2F2"/>
</g>
</svg>
