<svg width="315" height="315" viewBox="0 0 315 315" fill="none" xmlns="http://www.w3.org/2000/svg">
<path d="M44.8785 201.259V213.708C44.8795 216.351 45.5183 218.955 46.7404 221.298C47.9626 223.643 49.7319 225.655 51.8978 227.167L101.173 177.827L87.5124 164.148C87.1468 163.783 86.713 163.493 86.2355 163.294C85.7581 163.096 85.2462 162.994 84.7294 162.994C84.2125 162.994 83.7008 163.096 83.2234 163.294C82.7459 163.493 82.312 163.783 81.9465 164.148L44.8785 201.259Z" fill="#F2F2F2"/>
<path d="M229.315 191.337L265.091 227.165C267.257 225.653 269.026 223.64 270.248 221.297C271.47 218.953 272.107 216.35 272.109 213.706V205.239L246.55 179.648C245.812 178.909 244.811 178.494 243.767 178.494C242.722 178.494 241.721 178.909 240.983 179.648L229.315 191.337Z" fill="#F2F2F2"/>
<path d="M158.498 13.581C161.713 13.5801 164.874 14.4274 167.658 16.0375L276.27 78.8254C279.056 80.4357 281.368 82.7514 282.976 85.5403C284.584 88.3291 285.431 91.4926 285.431 94.7128V220.289C285.431 223.508 284.584 226.671 282.976 229.461C281.368 232.248 279.056 234.565 276.27 236.175L167.658 298.963C164.872 300.572 161.713 301.42 158.497 301.42C155.281 301.42 152.121 300.572 149.336 298.963L40.7239 236.175C37.9388 234.565 35.6259 232.248 34.018 229.461C32.4101 226.671 31.5636 223.508 31.5636 220.289V94.7128C31.5636 91.4926 32.4101 88.3291 34.018 85.5403C35.6261 82.7514 37.9388 80.4357 40.7239 78.8254L149.336 16.0375C152.122 14.4275 155.282 13.5802 158.498 13.581ZM158.498 0C152.901 0.00218843 147.404 1.47724 142.556 4.27732L33.9421 67.0652C29.1011 69.874 25.081 73.9056 22.2834 78.7572C19.4859 83.6089 18.0089 89.1107 18 94.7128V220.289C18.0092 225.891 19.4865 231.393 22.2842 236.244C25.082 241.096 29.1023 245.127 33.9435 247.936L142.556 310.724C147.403 313.526 152.901 315 158.498 315C164.095 315 169.593 313.526 174.44 310.724L283.052 247.936C287.894 245.129 291.916 241.096 294.714 236.245C297.512 231.393 298.99 225.891 299 220.289V94.7128C298.992 89.1107 297.514 83.6089 294.717 78.7573C291.918 73.9057 287.898 69.874 283.058 67.0652L174.446 4.27732C169.598 1.47743 164.1 0.00238759 158.504 0H158.498Z" fill="#F2F2F2"/>
<path fill-rule="evenodd" clip-rule="evenodd" d="M84.7251 147.997C86.377 147.993 88.0134 148.316 89.5394 148.95C91.0655 149.583 92.4508 150.513 93.6153 151.686L110.443 168.535L144.992 133.941C148.576 130.358 153.433 128.347 158.497 128.347C163.56 128.347 168.417 130.358 172.001 133.941L220.04 182.042L234.888 167.175C237.248 164.818 240.444 163.494 243.778 163.494C247.111 163.494 250.308 164.818 252.667 167.175L272.116 186.665V101.299C272.116 98.4168 271.358 95.5851 269.917 93.089C268.478 90.5926 266.407 88.5198 263.914 87.0785L166.697 30.8772C164.204 29.4357 161.374 28.6768 158.495 28.6768C155.616 28.6768 152.787 29.4357 150.294 30.8772L53.0743 87.0785C50.5812 88.5198 48.5107 90.5926 47.071 93.089C45.6314 95.5851 44.8733 98.4168 44.8727 101.299V182.68L75.8294 151.684C76.9947 150.511 78.3812 149.58 79.9081 148.949C81.4352 148.316 83.0725 147.992 84.7251 147.997ZM165.106 110.238V112.849C165.106 114.233 164.557 115.561 163.579 116.541C162.601 117.52 161.275 118.07 159.892 118.07H154.677C153.295 118.07 151.968 117.52 150.99 116.541C150.012 115.561 149.463 114.233 149.463 112.849V110.238H165.106ZM167.713 105.017V105.735C167.713 106.237 167.514 106.719 167.16 107.073C166.805 107.428 166.324 107.628 165.823 107.628H148.746C148.245 107.628 147.764 107.428 147.41 107.073C147.055 106.719 146.856 106.237 146.856 105.735V105.017H167.713ZM146.856 102.407V99.7963H167.713V102.407H146.856ZM159.24 83.0891V97.1858H155.329V83.0891L157.285 81.7838L159.24 83.0891ZM164.007 48.6082C166.993 49.5583 169.741 51.1369 172.067 53.238C174.39 55.32 176.247 57.869 177.518 60.7187C178.79 63.5683 179.446 66.6545 179.446 69.7755C179.444 75.5056 177.209 81.0087 173.214 85.1122C170.026 88.3678 168.079 92.6405 167.713 97.1858H161.886V83.9636L167.101 81.3531C167.266 81.2841 167.416 81.1817 167.54 81.0522C167.664 80.9227 167.76 80.769 167.822 80.6007C167.884 80.4323 167.911 80.2529 167.901 80.0737C167.891 79.8945 167.844 79.7194 167.763 79.5592C167.682 79.399 167.569 79.2573 167.431 79.1428C167.293 79.0283 167.133 78.9436 166.96 78.8939C166.788 78.8442 166.607 78.8307 166.43 78.854C166.252 78.8774 166.081 78.9372 165.927 79.0298L161.391 81.3009L158.784 79.591C158.355 79.3048 157.852 79.1521 157.337 79.1521C156.822 79.1521 156.318 79.3048 155.89 79.591L153.283 81.3009L148.746 79.0298C148.442 78.9031 148.102 78.8962 147.793 79.0104C147.484 79.1247 147.23 79.3516 147.082 79.6458C146.933 79.9399 146.901 80.2794 146.992 80.596C147.084 80.9127 147.291 81.1832 147.573 81.3531L152.722 83.9636V97.1858H146.856C146.53 92.6882 144.606 88.4561 141.433 85.2558C138.543 82.286 136.543 78.5649 135.657 74.5144C134.772 70.464 135.038 66.2463 136.425 62.3395C137.812 58.4327 140.265 54.9932 143.505 52.411C146.745 49.8288 150.642 48.2071 154.756 47.7299C157.867 47.3587 161.021 47.6582 164.007 48.6082ZM155.836 75.8618C156.265 76.1487 156.769 76.3018 157.285 76.3018C157.976 76.3018 158.639 76.0268 159.128 75.5372C159.617 75.0476 159.892 74.3836 159.892 73.6913C159.892 73.175 159.739 72.6703 159.452 72.241C159.166 71.8117 158.759 71.4771 158.282 71.2795C157.806 71.0819 157.282 71.0302 156.776 71.131C156.27 71.2317 155.806 71.4803 155.441 71.8454C155.076 72.2105 154.828 72.6756 154.728 73.182C154.627 73.6884 154.679 74.2133 154.876 74.6903C155.073 75.1673 155.407 75.575 155.836 75.8618ZM163.055 69.6468C163.228 69.5633 163.381 69.4423 163.503 69.2926C163.719 69.0254 163.821 68.6835 163.787 68.3414C163.753 67.9992 163.585 67.6844 163.32 67.4653L163.046 67.2303C161.419 65.9032 159.384 65.1785 157.285 65.1785C155.185 65.1785 153.151 65.9032 151.523 67.2303L151.249 67.4653C151.097 67.566 150.968 67.6975 150.87 67.8513C150.772 68.0052 150.707 68.1779 150.679 68.3584C150.652 68.5389 150.663 68.7231 150.711 68.8991C150.759 69.0751 150.844 69.239 150.959 69.3803C151.075 69.5216 151.219 69.637 151.381 69.7192C151.544 69.8014 151.722 69.8485 151.904 69.8574C152.087 69.8664 152.268 69.837 152.438 69.7712C152.608 69.7054 152.763 69.6046 152.892 69.4753L153.165 69.2534C154.329 68.3036 155.784 67.7848 157.285 67.7848C158.786 67.7848 160.241 68.3036 161.404 69.2534L161.678 69.4753C161.905 69.6731 162.198 69.78 162.499 69.7755C162.692 69.7743 162.881 69.7303 163.055 69.6468ZM165.721 64.3968C165.909 64.2943 166.07 64.1467 166.188 63.9672C166.377 63.6794 166.444 63.3287 166.376 62.9913C166.308 62.654 166.109 62.3573 165.823 62.1659C163.298 60.4685 160.326 59.562 157.285 59.562C154.243 59.562 151.271 60.4685 148.746 62.1659C148.586 62.2518 148.446 62.3701 148.335 62.5133C148.223 62.6565 148.142 62.8214 148.098 62.9975C148.054 63.1736 148.047 63.3571 148.077 63.5361C148.108 63.7151 148.175 63.8858 148.276 64.0372C148.376 64.1885 148.507 64.3173 148.659 64.4153C148.812 64.5132 148.983 64.5782 149.163 64.606C149.342 64.6338 149.525 64.6239 149.7 64.5768C149.875 64.5297 150.039 64.4466 150.18 64.3327C152.284 62.9291 154.756 62.1801 157.285 62.1801C159.813 62.1801 162.285 62.9291 164.389 64.3327C164.599 64.4799 164.85 64.5575 165.106 64.5546C165.321 64.5534 165.532 64.4992 165.721 64.3968ZM168.328 59.1758C168.517 59.0733 168.677 58.9257 168.795 58.7462L168.821 58.7201C168.912 58.5745 168.974 58.4123 169.002 58.2429C169.03 58.0734 169.025 57.9001 168.986 57.7327C168.947 57.5654 168.876 57.4074 168.776 57.2677C168.676 57.128 168.55 57.0095 168.404 56.9188L167.648 56.4489C164.536 54.5158 160.947 53.4915 157.285 53.4915C153.622 53.4915 150.033 54.5158 146.921 56.4489L146.165 56.9188C145.871 57.1023 145.662 57.3952 145.584 57.733C145.506 58.0708 145.565 58.4258 145.748 58.7201C145.931 59.0143 146.224 59.2236 146.561 59.302C146.728 59.3408 146.901 59.3462 147.07 59.318C147.239 59.2899 147.401 59.2286 147.547 59.1378L148.303 58.6679C150.999 56.9911 154.11 56.1026 157.285 56.1026C160.459 56.1026 163.57 56.9911 166.266 58.6679L167.022 59.1378C167.23 59.2665 167.469 59.3343 167.713 59.3336C167.928 59.3324 168.139 59.2782 168.328 59.1758Z" fill="#F2F2F2"/>
<path fill-rule="evenodd" clip-rule="evenodd" d="M97.1547 219.643C97.2663 219.409 97.3673 219.166 97.455 218.922H129.834V229.486H118.747C118.646 229.199 118.529 228.917 118.393 228.643C117.099 225.992 114.242 224.193 111.282 224.164H111.178C109.15 224.183 107.179 224.986 105.73 226.37C103.905 228.113 102.985 230.756 103.333 233.262C103.796 236.557 106.52 239.394 109.772 239.998C113.28 240.65 116.918 238.72 118.414 235.612C118.542 235.351 118.651 235.083 118.747 234.809H129.834V242.795C129.844 242.889 129.852 242.97 129.859 243.044C129.891 243.381 129.907 243.552 130.097 243.949C130.272 244.309 130.522 244.625 130.835 244.876C131.295 245.243 131.896 245.386 132.491 245.456H140.466V256.563C139.408 256.938 138.433 257.532 137.623 258.306C135.797 260.049 134.877 262.694 135.228 265.199C135.608 267.929 137.516 270.398 140.065 271.458C143.971 273.089 148.582 271.13 150.309 267.548C151.351 265.382 151.343 262.74 150.288 260.579C149.382 258.727 147.713 257.29 145.781 256.582V245.456H156.411V277.855C155.311 278.246 154.298 278.874 153.466 279.696C151.702 281.442 150.83 284.037 151.173 286.49C151.558 289.229 153.466 291.69 156.009 292.749C159.919 294.378 164.529 292.419 166.254 288.837C167.296 286.674 167.29 284.031 166.233 281.871C165.329 280.018 163.66 278.581 161.728 277.876V245.456H172.358V256.563C171.301 256.938 170.325 257.532 169.515 258.306C167.689 260.049 166.77 262.694 167.12 265.199C167.503 267.929 169.408 270.398 171.957 271.458C175.866 273.086 180.477 271.128 182.201 267.548C183.243 265.382 183.235 262.74 182.18 260.579C181.274 258.727 179.605 257.29 177.673 256.582V245.456H185.645C185.74 245.445 185.821 245.437 185.895 245.43C186.233 245.398 186.404 245.382 186.799 245.192C187.16 245.019 187.476 244.766 187.724 244.452C188.09 243.992 188.236 243.391 188.306 242.795V234.809H199.403C200.365 237.411 202.72 239.492 205.452 239.998C208.957 240.65 212.597 238.72 214.094 235.61C215.135 233.446 215.13 230.804 214.072 228.643C212.775 225.992 209.921 224.193 206.958 224.164H206.857C204.827 224.183 202.858 224.986 201.407 226.37C200.506 227.23 199.826 228.313 199.408 229.486H188.306V218.922H220.695C221.675 221.487 224.011 223.528 226.714 224.031C230.219 224.68 233.857 222.751 235.356 219.643C236.392 217.49 236.39 214.866 235.356 212.719C234.07 210.044 231.2 208.224 228.221 208.195H228.12C226.119 208.216 224.155 209.001 222.704 210.369C221.806 211.215 221.123 212.279 220.7 213.437H188.306V202.872H199.403C200.365 205.475 202.72 207.556 205.452 208.062C208.957 208.714 212.597 206.784 214.094 203.673C215.146 201.491 215.127 198.83 214.051 196.661C212.744 194.032 209.903 192.254 206.961 192.228H206.857C204.806 192.246 202.797 193.074 201.34 194.5C200.471 195.349 199.815 196.403 199.408 197.55H188.306V189.567C188.297 189.498 188.292 189.429 188.286 189.36C188.276 189.23 188.266 189.1 188.236 188.973C188.149 188.585 187.973 188.22 187.724 187.906C187.357 187.446 186.804 187.169 186.238 186.972L185.645 186.906H177.673V175.761C179.626 175.048 181.301 173.605 182.201 171.737C183.251 169.555 183.235 166.894 182.159 164.725C180.851 162.096 178.011 160.318 175.066 160.292H174.965C172.914 160.31 170.905 161.138 169.446 162.562C167.665 164.305 166.775 166.915 167.12 169.387C167.524 172.272 169.656 174.803 172.358 175.795V186.906H161.728V154.44C163.679 153.732 165.358 152.311 166.254 150.446C167.306 148.263 167.288 145.602 166.211 143.433C164.907 140.807 162.066 139.027 159.121 139H159.018C156.958 139.019 154.957 139.846 153.501 141.273C151.718 143.013 150.827 145.624 151.173 148.096C151.558 150.837 153.466 153.298 156.009 154.357C156.142 154.413 156.278 154.464 156.411 154.512V186.906H145.781V175.761C147.734 175.048 149.408 173.605 150.309 171.737C151.359 169.555 151.343 166.894 150.264 164.725C148.959 162.096 146.118 160.318 143.174 160.292H143.073C141.019 160.31 139.042 161.125 137.588 162.53C135.781 164.275 134.88 166.905 135.228 169.387C135.629 172.272 137.763 174.803 140.466 175.795V186.906H132.491C132.394 186.916 132.31 186.924 132.235 186.931C131.903 186.962 131.732 186.978 131.34 187.169C130.806 187.425 130.357 187.869 130.097 188.412C129.927 188.768 129.879 189.17 129.834 189.567V197.55H118.747C118.651 197.276 118.542 197.01 118.414 196.749C117.128 194.077 114.261 192.257 111.282 192.228H111.178C109.127 192.246 107.149 193.061 105.696 194.466C103.891 196.209 102.985 198.835 103.333 201.324C103.796 204.621 106.52 207.457 109.772 208.062C113.28 208.714 116.918 206.784 118.414 203.673C118.542 203.413 118.651 203.146 118.747 202.872H129.834V213.437H97.455C97.3514 213.147 97.2291 212.862 97.0883 212.588C95.7728 209.978 92.9453 208.224 90.0194 208.195H89.9185C87.8882 208.216 85.9163 209.017 84.468 210.401C82.6423 212.144 81.7229 214.789 82.0736 217.293C82.5334 220.587 85.2573 223.427 88.51 224.031C92.0179 224.68 95.6559 222.751 97.1547 219.643ZM156.658 286.498C155.866 284.798 157.304 282.733 159.052 282.714H159.121C160.059 282.735 160.931 283.27 161.386 284.069C162.148 285.415 161.457 287.275 160.073 287.842C158.816 288.356 157.229 287.72 156.658 286.498ZM172.611 265.223C171.803 263.514 173.248 261.441 174.997 261.422C175.021 261.422 175.045 261.422 175.069 261.425C176.01 261.446 176.886 261.984 177.338 262.79C178.09 264.134 177.397 265.986 176.018 266.55C174.766 267.064 173.187 266.433 172.611 265.223ZM140.713 265.207C139.919 263.506 141.359 261.441 143.105 261.422C143.129 261.422 143.153 261.422 143.177 261.425C144.115 261.446 144.994 261.984 145.446 262.79C146.195 264.134 145.505 265.986 144.125 266.55C142.868 267.064 141.282 266.428 140.713 265.207ZM108.826 233.284C108.018 231.578 109.464 229.502 111.213 229.486H111.282C112.223 229.508 113.102 230.048 113.554 230.854C114.303 232.198 113.612 234.05 112.233 234.614C110.981 235.125 109.4 234.497 108.826 233.284ZM204.505 233.284C203.695 231.578 205.141 229.502 206.892 229.486H206.961C207.902 229.508 208.781 230.048 209.23 230.854C209.982 232.198 209.292 234.05 207.91 234.614C206.661 235.125 205.079 234.497 204.505 233.284ZM92.2995 214.901C92.4537 215.183 92.5467 215.486 92.5839 215.795C92.56 216.002 92.56 216.21 92.5839 216.415C92.4723 217.373 91.8664 218.28 90.9708 218.645C89.7192 219.158 88.1406 218.53 87.564 217.317C86.7561 215.611 88.2017 213.535 89.9504 213.52H90.0221C90.9682 213.541 91.8504 214.086 92.2995 214.901ZM225.76 217.301C225.616 216.995 225.545 216.673 225.537 216.356C225.539 216.3 225.539 216.242 225.539 216.186C225.595 214.813 226.78 213.533 228.152 213.52H228.223C229.164 213.541 230.041 214.078 230.493 214.887C231.245 216.231 230.554 218.081 229.172 218.645C227.915 219.161 226.329 218.522 225.76 217.301ZM108.826 201.348C108.018 199.642 109.467 197.566 111.213 197.55H111.282C112.223 197.571 113.102 198.112 113.554 198.918C114.303 200.262 113.612 202.111 112.233 202.678C110.981 203.189 109.4 202.561 108.826 201.348ZM204.505 201.348C203.695 199.642 205.143 197.566 206.892 197.55H206.961C207.902 197.571 208.781 198.112 209.23 198.918C209.982 200.262 209.292 202.111 207.91 202.678C206.661 203.189 205.079 202.561 204.505 201.348ZM172.611 169.411C171.803 167.706 173.248 165.63 174.997 165.614H175.069C176.01 165.635 176.886 166.173 177.338 166.982C178.09 168.326 177.397 170.175 176.018 170.739C174.766 171.253 173.187 170.625 172.611 169.411ZM140.538 167.658C140.811 166.497 141.93 165.625 143.105 165.614H143.177C144.787 165.649 145.983 167.221 145.746 168.698C145.486 170.345 143.557 171.349 142.09 170.729C140.939 170.239 140.248 168.868 140.538 167.658ZM156.666 148.12C155.858 146.414 157.304 144.338 159.052 144.322H159.121C160.062 144.344 160.942 144.884 161.393 145.69C162.143 147.034 161.452 148.883 160.073 149.45C158.821 149.961 157.24 149.333 156.666 148.12ZM151.365 232.781H167.301L169.797 239.245H178.501L159.557 193.869H158.917L140.037 239.245H148.997L151.365 232.781ZM160.261 214.413L164.933 226.573H153.669L158.149 214.413L159.173 210.829L160.261 214.413Z" fill="#F2F2F2"/>
</svg>
